<svg width="27" height="28" viewBox="0 0 27 28" fill="none" xmlns="http://www.w3.org/2000/svg">
<path d="M18.6909 17.2882L18.3694 17.6394L18.7043 17.9777L26.3703 25.7206C26.4533 25.8081 26.4997 25.9242 26.4997 26.0449C26.4997 26.1666 26.4526 26.2836 26.3682 26.3714L26.3682 26.3713L26.3636 26.3762C26.326 26.4164 26.2806 26.4483 26.2301 26.4701C26.1801 26.4917 26.1262 26.5029 26.0717 26.5029C26.0154 26.5022 25.9598 26.4903 25.9081 26.468C25.8559 26.4454 25.8087 26.4127 25.7693 26.3716L25.7694 26.3716L25.7635 26.3657L18.0155 18.5587L17.7076 18.2484L17.3589 18.5122C15.6498 19.8054 13.5645 20.5038 11.4213 20.5009L11.4193 20.5009C9.1476 20.5069 6.94301 19.7311 5.17574 18.3037C3.40848 16.8764 2.18617 14.8844 1.71408 12.6622C1.24199 10.4401 1.54888 8.12325 2.5832 6.10068C3.61753 4.0781 5.3163 2.47301 7.39423 1.55496C9.47217 0.636901 11.8027 0.461789 13.9945 1.05903C16.1863 1.65627 18.1058 2.98949 19.4308 4.8348C20.7557 6.6801 21.4054 8.92511 21.2706 11.1928C21.1359 13.4605 20.225 15.6128 18.6909 17.2882ZM11.4182 19.6009H11.4206C13.2046 19.6011 14.9488 19.073 16.4332 18.0834C17.9176 17.0938 19.0758 15.6868 19.7618 14.0399C20.4478 12.393 20.6308 10.5799 20.2879 8.82907C19.9449 7.07828 19.0913 5.46822 17.8346 4.20185C16.578 2.93548 14.9746 2.0695 13.2265 1.71306C11.4784 1.35663 9.66389 1.5257 8.01175 2.19897C6.35961 2.87224 4.94377 4.01956 3.94272 5.4963C2.94167 6.97304 2.40023 8.71309 2.38664 10.4971L2.88662 10.5009L2.38663 10.4994C2.37959 12.9034 3.32665 15.2119 5.01992 16.9182C6.7132 18.6246 9.01433 19.5894 11.4182 19.6009Z" fill="#E8E8E8" stroke="black"/>
</svg>
